<svg xmlns="http://www.w3.org/2000/svg" viewBox="0 0 200 200"><defs><style>.a{fill:#fff;}</style></defs><circle cx="100" cy="100" r="100"/><path class="a" d="M420.58,1225H444a23.42,23.42,0,0,1,5.8.6,11.51,11.51,0,0,1,4.3,2.2l5.4-2.3.1,18.2h-28a20.93,20.93,0,0,1-5.75-.65,5.34,5.34,0,0,1-3.3-2.45,13.61,13.61,0,0,1-1.5-4.85,58.37,58.37,0,0,1-.45-8.15Zm2.3-28c1.54-.26,3-.48,4.45-.65a40.2,40.2,0,0,1,4.45-.25q6.81,0,9.8,2.7t3,8.3V1267a29,29,0,0,1-3.85.55c-1.29.1-2.68.15-4.15.15a19,19,0,0,1-7.25-1.15,7.19,7.19,0,0,1-3.95-3.9,19,19,0,0,1-1.19-7.45v-45.1c0-2.6-.11-5-.31-7.15A36.15,36.15,0,0,0,422.88,1197Zm53.5,70a32,32,0,0,1-4.3.7c-1.39.14-2.89.2-4.5.2a16.65,16.65,0,0,1-6.95-1.3,9,9,0,0,1-4.3-3.95,13.09,13.09,0,0,1-1.45-6.35v-59.4q1.8-.3,3.75-.45c1.31-.1,2.65-.15,4.06-.15a23.51,23.51,0,0,1,5.25.55,10.09,10.09,0,0,1,3.94,1.8,8,8,0,0,1,2.45,3.25,11.65,11.65,0,0,1,.86,4.6v47.4c0,2.54.09,4.87.29,7A58,58,0,0,0,476.38,1267Z" transform="translate(-379 -1128)"/><path class="a" d="M483.48,1248h35.6a33.08,33.08,0,0,1,10.45,1.35,10.72,10.72,0,0,1,5.8,4.2,12.63,12.63,0,0,1,1.85,7,20.11,20.11,0,0,1-.15,2.5q-.15,1.2-.3,2.1a11.85,11.85,0,0,1-.45,1.8h-43.4a12.58,12.58,0,0,1-6.25-1.25,6.49,6.49,0,0,1-2.95-4,25.47,25.47,0,0,1-.8-7c0-.86,0-1.68.05-2.45a17,17,0,0,1,.25-2.2A18.55,18.55,0,0,0,483.48,1248Zm20.3.9.7-1.5a10.38,10.38,0,0,1-2.4-4.05,17.17,17.17,0,0,1-.7-5v-9.1l-.5-.2a28.82,28.82,0,0,1-4.85,2.55,36,36,0,0,1-3.8,1.3,11.33,11.33,0,0,1-3,.45,4.21,4.21,0,0,1-3.4-1.55,10.92,10.92,0,0,1-2-4.4,27.93,27.93,0,0,1-.7-6.55,23.74,23.74,0,0,1,.3-3.7,26.47,26.47,0,0,1,.9-3.8c1.67-.4,3.6-.76,5.8-1.1s4.52-.56,6.95-.7,4.95-.2,7.55-.2a39.5,39.5,0,0,1,9.95,1,8.58,8.58,0,0,1,5.1,3.15,9.93,9.93,0,0,1,1.45,5.65v29.5Zm-5.1-60.1,2.6-.4q1.41-.2,2.85-.45a17.84,17.84,0,0,1,2.9-.25h2.75a26.09,26.09,0,0,1,9.8,1.6,5.94,5.94,0,0,1,3.9,6v7.6q-1.2.4-2.55.75c-.9.24-1.81.44-2.75.6a24.34,24.34,0,0,1-2.75.35c-.9.07-1.78.1-2.65.1a23.08,23.08,0,0,1-10-2,6.51,6.51,0,0,1-4.05-6.25Z" transform="translate(-379 -1128)"/></svg>